<svg width="128" height="128" viewBox="0 0 128 128" fill="none" xmlns="http://www.w3.org/2000/svg">
<g clip-path="url(#clip0_3075_8666)">
<rect width="128" height="128" fill="#0C0C1D" style="fill:#0C0C1D;fill:color(display-p3 0.0471 0.0471 0.1137);fill-opacity:1;"/>
<g opacity="0.24" filter="url(#filter0_f_3075_8666)">
<ellipse cx="70.5" cy="68" rx="52.25" ry="46.5" fill="url(#paint0_linear_3075_8666)"/>
</g>
<g opacity="0.12">
<rect width="0.5" height="128" transform="translate(20.9165)" fill="white" style="fill:white;fill-opacity:1;"/>
</g>
<g opacity="0.12">
<rect width="0.5" height="128" transform="translate(42.3335)" fill="white" style="fill:white;fill-opacity:1;"/>
</g>
<g opacity="0.12">
<rect width="0.5" height="128" transform="translate(63.75)" fill="white" style="fill:white;fill-opacity:1;"/>
</g>
<g opacity="0.12">
<rect width="0.5" height="128" transform="translate(85.1665)" fill="white" style="fill:white;fill-opacity:1;"/>
</g>
<g opacity="0.12">
<rect width="0.5" height="128" transform="translate(106.583)" fill="white" style="fill:white;fill-opacity:1;"/>
</g>
<g filter="url(#filter1_f_3075_8666)">
<rect x="105.75" y="17.7374" width="1.75" height="1.75" transform="rotate(-45 105.75 17.7374)" fill="white" style="fill:white;fill-opacity:1;"/>
</g>
<rect x="106.75" y="-7.25" width="0.5" height="24" fill="url(#paint1_linear_3075_8666)"/>
<g opacity="0.12">
<rect width="128" height="0.5" transform="translate(-0.5 109.643)" fill="white" style="fill:white;fill-opacity:1;"/>
</g>
<g opacity="0.12">
<rect width="128" height="0.5" transform="translate(-0.5 91.2856)" fill="white" style="fill:white;fill-opacity:1;"/>
</g>
<g opacity="0.12">
<rect width="128" height="0.5" transform="translate(-0.5 72.9286)" fill="white" style="fill:white;fill-opacity:1;"/>
</g>
<g opacity="0.12">
<rect width="128" height="0.5" transform="translate(-0.5 54.5714)" fill="white" style="fill:white;fill-opacity:1;"/>
</g>
<g opacity="0.12">
<rect width="128" height="0.5" transform="translate(-0.5 36.2144)" fill="white" style="fill:white;fill-opacity:1;"/>
</g>
<g opacity="0.12">
<rect width="128" height="0.5" transform="translate(-0.5 17.8572)" fill="white" style="fill:white;fill-opacity:1;"/>
</g>
<g filter="url(#filter2_f_3075_8666)">
<rect x="20" y="48.4874" width="1.75" height="1.75" transform="rotate(-45 20 48.4874)" fill="white" style="fill:white;fill-opacity:1;"/>
</g>
<g filter="url(#filter3_f_3075_8666)">
<rect x="94" y="109.987" width="1.75" height="1.75" transform="rotate(-45 94 109.987)" fill="white" style="fill:white;fill-opacity:1;"/>
</g>
<rect x="21" y="-7.25" width="0.5" height="54.75" fill="url(#paint2_linear_3075_8666)"/>
<rect x="161.5" y="109.75" width="0.500003" height="65.75" transform="rotate(90 161.5 109.75)" fill="url(#paint3_linear_3075_8666)"/>
<g filter="url(#filter4_d_3075_8666)">
<path fill-rule="evenodd" clip-rule="evenodd" d="M15.542 87.6154C16.9015 87.6154 18.0038 88.7091 18.0039 90.0578C18.0039 91.4066 16.9016 92.5002 15.542 92.5002C14.1825 92.5 13.0811 91.4065 13.0811 90.0578C13.0812 88.7092 14.1826 87.6156 15.542 87.6154ZM69.498 35.2541H92.9297C94.2814 35.2541 95.3906 36.3534 95.3906 37.6984C95.3906 39.0434 94.2817 40.1426 92.9326 40.1428H70.7051C69.3534 40.1429 68.2471 41.2421 68.2471 42.5871C68.2472 43.932 69.3563 45.0314 70.708 45.0314H98.5771C99.9287 45.0316 101.035 46.1279 101.035 47.4728C101.035 48.8178 99.9308 49.9172 98.5791 49.9172H79.0303C77.6762 49.9174 76.5166 50.9834 76.5166 52.3283C76.5166 53.6733 77.6233 54.7726 78.9775 54.7726H113.739C115.094 54.7727 116.2 55.872 116.2 57.217C116.2 58.5592 115.094 59.6581 113.742 59.6584H95.3877C97.553 74.3033 88.0508 88.3764 73.2725 91.7365C70.7913 92.3011 68.3958 92.4484 65.8818 92.4484H30.7617C29.4074 92.4484 28.3027 91.3496 28.3027 90.007C28.3028 88.6622 29.4096 87.5659 30.7637 87.5656H52.9482C54.3023 87.5655 55.409 86.4665 55.4092 85.1242C55.4092 83.8445 54.3985 82.7953 53.1328 82.7023C53.0722 82.6998 53.0138 82.6867 52.9531 82.6867H38.4424C37.1741 82.5912 36.1631 81.5451 36.1631 80.2629C36.1632 78.9204 37.2708 77.8244 38.625 77.8244H57.5898C58.944 77.8242 60.0508 76.7245 60.0508 75.382C60.0506 74.0371 58.9435 72.9406 57.5918 72.9406H12.208C10.854 72.9404 9.75013 71.8415 9.75 70.4992C9.75 69.7389 10.1117 69.066 10.665 68.6193C11.092 68.2732 11.6253 68.0598 12.2139 68.0598H38.3242C36.0856 53.3672 45.5981 39.2243 60.4219 35.8566C63.4791 35.1615 65.9346 35.2541 69.498 35.2541ZM30.9121 77.8469C32.2609 77.8469 33.3545 78.9405 33.3545 80.2893C33.3543 81.6379 32.2608 82.7316 30.9121 82.7316H22.5459C21.1974 82.7314 20.1047 81.6378 20.1045 80.2893C20.1045 78.9405 21.1972 77.8471 22.5459 77.8469H30.9121ZM115.844 45.0197C117.192 45.0197 118.286 46.1125 118.286 47.4611C118.286 48.81 117.193 49.9035 115.844 49.9035H107.479C106.13 49.9035 105.036 48.81 105.036 47.4611C105.036 46.1125 106.13 45.0197 107.479 45.0197H115.844ZM102.864 35.2502C104.224 35.2504 105.326 36.3439 105.326 37.6926C105.326 39.0412 104.224 40.1348 102.864 40.135C101.505 40.135 100.402 39.0414 100.402 37.6926C100.402 36.3437 101.505 35.2502 102.864 35.2502Z" fill="url(#paint4_linear_3075_8666)"/>
</g>
</g>
<defs>
<filter id="filter0_f_3075_8666" x="-11.75" y="-8.5" width="164.5" height="153" filterUnits="userSpaceOnUse" color-interpolation-filters="sRGB">
<feFlood flood-opacity="0" result="BackgroundImageFix"/>
<feBlend mode="normal" in="SourceGraphic" in2="BackgroundImageFix" result="shape"/>
<feGaussianBlur stdDeviation="15" result="effect1_foregroundBlur_3075_8666"/>
</filter>
<filter id="filter1_f_3075_8666" x="105.25" y="16" width="3.4751" height="3.47485" filterUnits="userSpaceOnUse" color-interpolation-filters="sRGB">
<feFlood flood-opacity="0" result="BackgroundImageFix"/>
<feBlend mode="normal" in="SourceGraphic" in2="BackgroundImageFix" result="shape"/>
<feGaussianBlur stdDeviation="0.25" result="effect1_foregroundBlur_3075_8666"/>
</filter>
<filter id="filter2_f_3075_8666" x="19.5" y="46.75" width="3.4751" height="3.47485" filterUnits="userSpaceOnUse" color-interpolation-filters="sRGB">
<feFlood flood-opacity="0" result="BackgroundImageFix"/>
<feBlend mode="normal" in="SourceGraphic" in2="BackgroundImageFix" result="shape"/>
<feGaussianBlur stdDeviation="0.25" result="effect1_foregroundBlur_3075_8666"/>
</filter>
<filter id="filter3_f_3075_8666" x="93.5" y="108.25" width="3.4751" height="3.47485" filterUnits="userSpaceOnUse" color-interpolation-filters="sRGB">
<feFlood flood-opacity="0" result="BackgroundImageFix"/>
<feBlend mode="normal" in="SourceGraphic" in2="BackgroundImageFix" result="shape"/>
<feGaussianBlur stdDeviation="0.25" result="effect1_foregroundBlur_3075_8666"/>
</filter>
<filter id="filter4_d_3075_8666" x="8.5" y="33.75" width="112.536" height="61.2502" filterUnits="userSpaceOnUse" color-interpolation-filters="sRGB">
<feFlood flood-opacity="0" result="BackgroundImageFix"/>
<feColorMatrix in="SourceAlpha" type="matrix" values="0 0 0 0 0 0 0 0 0 0 0 0 0 0 0 0 0 0 127 0" result="hardAlpha"/>
<feOffset dx="0.75" dy="0.5"/>
<feGaussianBlur stdDeviation="1"/>
<feComposite in2="hardAlpha" operator="out"/>
<feColorMatrix type="matrix" values="0 0 0 0 0.0469826 0 0 0 0 0.0449653 0 0 0 0 0.145833 0 0 0 0.4 0"/>
<feBlend mode="normal" in2="BackgroundImageFix" result="effect1_dropShadow_3075_8666"/>
<feBlend mode="normal" in="SourceGraphic" in2="effect1_dropShadow_3075_8666" result="shape"/>
</filter>
<linearGradient id="paint0_linear_3075_8666" x1="91.0032" y1="37.2385" x2="35.3289" y2="110.383" gradientUnits="userSpaceOnUse">
<stop stop-color="#00FFC2" style="stop-color:#00FFC2;stop-color:color(display-p3 0.0000 1.0000 0.7600);stop-opacity:1;"/>
<stop offset="0.530275" stop-color="#00D1FF" style="stop-color:#00D1FF;stop-color:color(display-p3 0.0000 0.8200 1.0000);stop-opacity:1;"/>
<stop offset="1" stop-color="#EB00FF" style="stop-color:#EB00FF;stop-color:color(display-p3 0.9200 0.0000 1.0000);stop-opacity:1;"/>
</linearGradient>
<linearGradient id="paint1_linear_3075_8666" x1="107" y1="-7.25" x2="107" y2="16.75" gradientUnits="userSpaceOnUse">
<stop stop-color="#C957FF" stop-opacity="0" style="stop-color:none;stop-opacity:0;"/>
<stop offset="0.422857" stop-color="#BB29FF" stop-opacity="0" style="stop-color:none;stop-opacity:0;"/>
<stop offset="1" stop-color="white" style="stop-color:white;stop-opacity:1;"/>
<stop offset="1" stop-color="#AD00FF" stop-opacity="0.7" style="stop-color:#AD00FF;stop-color:color(display-p3 0.6800 0.0000 1.0000);stop-opacity:0.7;"/>
</linearGradient>
<linearGradient id="paint2_linear_3075_8666" x1="21.25" y1="-7.25" x2="21.25" y2="47.5" gradientUnits="userSpaceOnUse">
<stop stop-color="#C957FF" stop-opacity="0" style="stop-color:none;stop-opacity:0;"/>
<stop offset="0.422857" stop-color="#BB29FF" stop-opacity="0" style="stop-color:none;stop-opacity:0;"/>
<stop offset="1" stop-color="white" style="stop-color:white;stop-opacity:1;"/>
<stop offset="1" stop-color="#AD00FF" stop-opacity="0.7" style="stop-color:#AD00FF;stop-color:color(display-p3 0.6800 0.0000 1.0000);stop-opacity:0.7;"/>
</linearGradient>
<linearGradient id="paint3_linear_3075_8666" x1="161.75" y1="109.75" x2="161.75" y2="175.5" gradientUnits="userSpaceOnUse">
<stop stop-color="#C957FF" stop-opacity="0" style="stop-color:none;stop-opacity:0;"/>
<stop offset="0.422857" stop-color="#BB29FF" stop-opacity="0" style="stop-color:none;stop-opacity:0;"/>
<stop offset="1" stop-color="white" style="stop-color:white;stop-opacity:1;"/>
<stop offset="1" stop-color="#AD00FF" stop-opacity="0.7" style="stop-color:#AD00FF;stop-color:color(display-p3 0.6800 0.0000 1.0000);stop-opacity:0.7;"/>
</linearGradient>
<linearGradient id="paint4_linear_3075_8666" x1="118.286" y1="35.25" x2="16.9925" y2="96.6327" gradientUnits="userSpaceOnUse">
<stop stop-color="#40FFDD" style="stop-color:#40FFDD;stop-color:color(display-p3 0.2500 1.0000 0.8650);stop-opacity:1;"/>
<stop offset="1" stop-color="#A258FF" style="stop-color:#A258FF;stop-color:color(display-p3 0.6337 0.3458 1.0000);stop-opacity:1;"/>
</linearGradient>
<clipPath id="clip0_3075_8666">
<rect width="128" height="128" fill="white" style="fill:white;fill-opacity:1;"/>
</clipPath>
</defs>
</svg>
