<svg xmlns="http://www.w3.org/2000/svg" width="128" height="128" viewBox="0 0 128 128">
  <g fill="none" fill-rule="evenodd">
    <rect width="128" height="128" fill="#EC5372"/>
    <g fill-rule="nonzero">
      <rect width="128" height="128" fill="#EC5372"/>
      <path fill="#E04262" d="M22.2876293,7.95807864e-13 L74.0798172,7.95807864e-13 C72.4500933,1.21995244 71.3870612,3.18385161 71.3870612,5.38901378 C71.3870612,9.06661643 74.3474958,12.0747007 77.9616542,12.0747007 L128,12.0747007 L128,25.4460746 L100.199935,25.4460746 C96.5834418,25.4460746 93.6253419,28.4541589 93.6253419,32.1317615 C93.6253419,35.8093642 96.5834418,38.8174484 100.199935,38.8174484 L128,38.8174484 L128,112.506427 C123.377822,118.397994 117.910536,123.633308 111.728758,128 L33.243698,128 C35.5330008,126.9509 37.1366068,124.604822 37.1366068,121.89708 C37.1366068,118.390418 34.4353269,115.517662 31.0453024,115.261251 C30.8842062,115.251754 30.7277794,115.213767 30.5620137,115.213767 L1.42108547e-13,115.213767 L1.42108547e-13,101.892251 L42.9454091,101.892251 C46.564237,101.892251 49.5200021,98.8817928 49.5200021,95.2041901 C49.5200021,91.5265875 46.564237,88.5185032 42.9454091,88.5185032 L1.42108547e-13,88.5185032 L1.42108547e-13,25.8149497 C5.42938493,15.7257556 13.0137003,6.86856667 22.2876293,7.97140132e-13 Z"/>
      <path fill="#FFF" d="M101.447471,41.6733143 C101.427092,41.6781357 101.408654,41.6762071 101.388275,41.6810286 L100.455689,41.6810286 C99.5793887,41.5026357 98.8438008,40.8392071 98.6322466,39.91735 C98.3420872,38.6599214 99.1320193,37.4073143 100.397463,37.1199571 C101.663878,36.8316357 102.923499,37.6184929 103.213659,38.8759214 C103.503818,40.13335 102.712915,41.3859571 101.447471,41.6733143 Z M78.6497788,50.8171536 C77.3853052,50.8171536 76.3508241,51.8450821 76.3508241,53.1015464 C76.3508241,54.3580107 77.3853052,55.3859393 78.6497788,55.3859393 L111.147624,55.3859393 C112.412098,55.3859393 113.446579,56.4138679 113.446579,57.6703321 C113.446579,58.9267964 112.412098,59.9537607 111.147624,59.9537607 L93.9884357,59.9537607 C96.0117875,73.6533679 87.1294184,86.8149036 73.3114294,89.9575107 C70.9920956,90.484975 68.6737323,90.6951893 66.4019497,90.6219036 L33.566394,90.6219036 C32.3019204,90.6219036 31.2674393,89.593975 31.2674393,88.3375107 C31.2674393,87.0810464 32.3019204,86.0531179 33.566394,86.0531179 L38.6048798,86.0531179 L54.3025967,86.0531179 C55.5670703,86.0531179 56.6015514,85.0251893 56.6015514,83.768725 C56.6015514,82.5701179 55.6563501,81.5894393 54.4714519,81.5016893 C54.4141964,81.4978321 54.3608226,81.4852964 54.3025967,81.4852964 L40.7349792,81.4852964 C39.5491107,81.3975464 38.6039094,80.4168679 38.6039094,79.2172964 C38.6039094,77.9617964 39.6383905,76.9338679 40.9028641,76.9338679 L58.6316963,76.9338679 C59.8971403,76.9338679 60.930651,75.9059393 60.930651,74.649475 C60.930651,73.3930107 59.8971403,72.3650821 58.6316963,72.3650821 L18.7896176,72.3650821 L16.1985627,72.3650821 C14.9331187,72.3650821 13.8986376,71.3371536 13.8986376,70.0806893 C13.8986376,69.3700107 14.2363481,68.7403321 14.7526182,68.3208679 C15.1504956,67.9987964 15.6483275,67.7972607 16.1985627,67.7972607 L39.4889439,67.7972607 L40.6068821,67.7972607 C38.5156,54.055225 47.4086439,40.8271536 61.2654502,37.6758679 C64.1243445,37.0259393 66.7876966,37 69.749942,37.1117607 L91.6555158,37.1117607 C92.919019,37.1117607 93.9544705,38.1396893 93.9544705,39.3961536 C93.9544705,40.6526179 92.919019,41.6805464 91.6555158,41.6805464 L70.8746733,41.6805464 C69.6111701,41.6805464 68.5757186,42.708475 68.5757186,43.9649393 C68.5757186,45.2214036 69.6111701,46.2493321 70.8746733,46.2493321 L96.9269054,46.2493321 C98.191379,46.2493321 99.2248897,47.2762964 99.2248897,48.5327607 C99.2248897,49.789225 98.191379,50.8171536 96.9269054,50.8171536 L78.6497788,50.8171536 Z M19.0157284,86.1297786 C20.2821429,85.8424214 21.5427348,86.6283143 21.8319237,87.8857429 C22.122083,89.1431714 21.3311805,90.3957786 20.0657364,90.6831357 C18.8002924,90.9714571 17.5397005,90.1846 17.2495412,88.9271714 C16.9603523,87.6697429 17.7502844,86.4171357 19.0157284,86.1297786 Z M104.325677,46.2489464 C104.594487,46.1390179 104.886587,46.0763393 105.194214,46.0763393 L111.585483,46.0763393 L113.012989,46.0763393 C114.277463,46.0763393 115.310974,47.1042679 115.310974,48.3607321 C115.310974,49.6171964 114.277463,50.645125 113.012989,50.645125 L105.194214,50.645125 C103.929741,50.645125 102.894289,49.6171964 102.894289,48.3607321 C102.894289,47.4089821 103.489164,46.5912679 104.325677,46.2489464 Z M23.5418258,79.2177786 C23.5418258,77.9613143 24.5763069,76.9333857 25.8407805,76.9333857 L33.660526,76.9333857 C34.9240292,76.9333857 35.9585102,77.9613143 35.9585102,79.2177786 C35.9585102,80.4742429 34.9240292,81.5021714 33.660526,81.5021714 L25.8407805,81.5021714 C24.5763069,81.5021714 23.5418258,80.4742429 23.5418258,79.2177786 Z"/>
    </g>
  </g>
</svg>
